<svg width="1600" height="1200" viewBox="0 0 1600 1200" fill="none" xmlns="http://www.w3.org/2000/svg">
<mask id="mask0_1040_352" style="mask-type:alpha" maskUnits="userSpaceOnUse" x="0" y="0" width="1600" height="1200">
<rect width="1600" height="1200" fill="white"/>
</mask>
<g mask="url(#mask0_1040_352)">
<path d="M-279.339 116.767C-229.747 249.105 -191.149 386.059 -151.954 521.749C-110.162 666.37 -110.044 818.528 -94.3071 966.295C-84.8806 1055.34 -66.3999 1141.16 -7.4696 1211.94C33.7934 1261.46 83.2776 1294.81 144.687 1314.05C230.241 1340.86 323.31 1341.41 407.179 1372.71C426.59 1379.95 446.227 1389.72 459.113 1406.55C469.803 1420.55 474.899 1438.13 481.983 1453.67C488.294 1467.5 498.935 1473.01 512.428 1474.47C553.584 1478.91 606.448 1454.15 649.171 1446.6C658.196 1445 669.749 1443.31 677.686 1438.55C683.35 1435.15 683.183 1430.32 682.88 1426.11C680.518 1393.46 681.998 1359.2 673.816 1327.03C664.438 1290.15 641.038 1264.64 609.035 1248.61C554.162 1221.16 483.385 1219.12 421.044 1208.24C359.517 1197.45 297.579 1185.69 238.599 1164.57C188.674 1146.72 141.885 1121.43 102.552 1085.56C53.2833 1040.57 26.6696 978.431 10.3153 915.693C-29.86 761.378 -26.5284 595.995 -64.8811 439.406C-83.9595 361.493 -108.133 284.218 -131.974 207.649C-152.385 142.078 -174.168 75.9385 -203.594 14.3575C-211.874 -2.98362 -221.976 -26.324 -240.408 -35.6367C-249.354 -40.1557 -258.379 -39.3323 -267.012 -37.705C-279.829 -35.2838 -292.705 -29.5491 -300.397 -18.7367C-325.874 17.0238 -294.263 81.5555 -279.339 116.718" fill="#137D9F"/>
<path d="M-181.444 10.76C-151.035 81.1058 -127.178 154.05 -104.705 227.16C-89.9417 275.201 -75.7572 323.468 -61.4943 371.675C-39.7271 445.208 -26.6216 520.544 -15.9588 596.321C-4.38359 678.56 4.95502 761.935 21.533 842.948C40.3476 934.883 70.5804 1022.59 145.819 1084.29C205.657 1133.31 279.002 1160.28 353.171 1179.12C399.276 1190.81 446.028 1199.49 492.809 1207.73C536.442 1215.41 582.075 1219.41 623.275 1236.77C678.689 1260.11 704.939 1305.92 731.915 1355.87C741.911 1374.38 758.4 1387.14 776.371 1396.62C819.445 1419.32 869.944 1429.47 918.609 1437.49C924.965 1438.54 931.557 1439.57 938.375 1440.34C951.949 1441.87 965.622 1442.34 979.27 1441.75C980.251 1441.75 981.232 1441.69 982.213 1441.62C991.787 1440.9 1003.15 1440.31 1011.58 1434.87C1016.57 1431.66 1016.41 1426.4 1015.51 1421.21C997.918 1323.49 973.689 1221.21 887.866 1163.7C836.856 1129.5 772.977 1124.89 712.806 1115.44C643.767 1104.65 574.493 1093.55 506.464 1078.8C422.985 1060.71 336.956 1037.97 262.208 994.542C183.939 949.06 141.993 880.469 113.428 797.368C76.8388 690.923 61.2221 577.271 39.759 466.257C18.3744 355.636 -14.3304 248.485 -47.9376 141.255C-68.1451 76.7919 -89.206 11.211 -118.487 -48.7716C-127.022 -66.2527 -136.9 -83.6161 -151.388 -97.2833C-161.825 -107.176 -174.794 -116.98 -188.968 -120.333C-198.013 -122.441 -211.334 -119.559 -217.102 -111.588C-227.961 -96.6068 -218.2 -73.4981 -212.413 -58.3504C-203.408 -34.8201 -192.156 -12.0252 -181.415 10.76" fill="#0ABBAB"/>
<path d="M-112.09 -69.5895C-80.9436 -6.74457 -57.866 59.5199 -36.5432 126.098C-21.8379 172.149 -7.83836 218.602 6.3376 264.849C29.2878 339.735 44.8068 416.464 60.1102 493.212C76.8351 577.025 94.4913 661.259 120.363 742.309C135.588 789.987 154.097 837.576 180.567 880.58C207.605 924.485 248.113 956.113 292.876 980.599C384.05 1030.45 488.615 1054.53 589.709 1074.66C643.874 1085.44 698.372 1094.41 752.889 1103.18C803.731 1111.36 856.337 1115.92 903.158 1138.98C977.421 1175.47 1020.14 1246.38 1059.64 1315.69C1073.03 1339.21 1090.6 1359.4 1110.31 1377.36C1153.54 1416.76 1199.3 1448.04 1254.97 1468.17C1261.93 1470.84 1269.05 1473.05 1276.3 1474.78C1288.95 1477.51 1302.27 1479.35 1315.33 1476.74C1316.09 1476.6 1316.84 1476.41 1317.56 1476.22C1327.06 1473.71 1331.28 1468.66 1333.49 1461.41C1334.91 1456.75 1333.18 1450.45 1330.72 1443.94C1285.63 1324.64 1241.31 1189.63 1135.84 1112.15C1081.39 1072.15 1015.96 1066.61 950.078 1057.11C868.277 1045.35 786.28 1033.53 705.185 1018.61C601.405 999.519 494.242 977.532 397.726 932.784C351.649 911.404 308.062 882 277.651 840.594C251.623 805.134 231.879 764.325 215.144 724.085C172.067 620.46 145.989 510.173 118.245 401.11C91.6973 296.682 58.5514 194.763 24.484 92.7256C5.38666 35.5341 -13.995 -22.784 -41.0038 -75.8015C-49.3467 -92.1937 -59.3169 -108.008 -71.738 -122.009C-86.9336 -139.136 -104.178 -158.664 -124.442 -167.776C-132.628 -171.45 -145.549 -176.986 -153.853 -172.038C-172.97 -160.682 -120.256 -84.9137 -112.07 -69.4915" fill="#B2CD0D"/>
<path d="M-37.539 -105.102C-4.88239 -48.6104 18.6414 12.0392 40.056 73.3654C55.7516 118.257 70.5937 163.796 85.4065 208.952C110.225 284.595 128.118 362.807 148.277 439.842C171.026 526.791 197.855 613.318 232.641 695.963C252.103 742.168 274.146 788.678 303.722 829.735C337.752 876.96 386.556 908.81 439.42 931.471C551.251 979.393 674.638 1001.23 793.974 1021.13C856.638 1031.57 919.538 1040.6 982.409 1049.56C1030.95 1056.49 1083.11 1059.05 1128.79 1078.07C1218.79 1115.56 1274.66 1203.59 1322.16 1283.82C1337.13 1309.13 1353.47 1333.61 1370.77 1357.46C1403.47 1402.57 1438.1 1460.22 1489.67 1485.44C1494.58 1487.86 1499.82 1490.27 1504.83 1491.32C1515.41 1493.62 1523.47 1489.82 1527.5 1483.65C1527.85 1483.15 1528.18 1482.64 1528.48 1482.1C1532.46 1474.31 1530.92 1461.93 1529.31 1453.92C1527.72 1446.81 1525.31 1439.9 1522.14 1433.33C1460.58 1301.93 1383.31 1158.71 1263.16 1076.13C1209.4 1039.18 1149.37 1032.61 1084.69 1024.21C1002.79 1013.57 920.5 1004.86 838.902 993.347C734.164 978.569 625.521 961.87 527.355 920.047C431.72 879.294 374.401 804.848 336.761 711.24C296.326 610.671 275.313 503.002 247.797 397.902C221.34 297.097 183.308 201.087 145.471 104.303C124.459 50.5666 102.721 -4.14059 73.9585 -53.229C64.4234 -69.3072 53.1747 -84.3062 40.4092 -97.9636C16.6108 -123.704 -9.46353 -148.827 -39.393 -167.213C-52.0476 -174.989 -66.0952 -183.677 -80.4566 -187.521C-97.1332 -191.983 -76.9644 -163.899 -74.5021 -160.221C-62.1909 -141.835 -49.1243 -123.998 -37.5782 -105.102" fill="#EAE9F9"/>
<path d="M72.5505 -93.5712C112.376 -40.4508 144.171 17.3062 170.8 77.6413C189.899 120.939 205.87 166.443 222.88 210.212C251.48 283.732 265.578 363.711 282.206 441.475C300.943 529.111 321.218 618.01 353.258 701.244C371.073 747.483 391.495 792.566 425.154 830.188C461.802 871.143 508.079 899.042 559.238 918.196C664.536 957.544 779.414 970.287 890.468 982.442C948.676 988.843 1006.99 994.294 1065.19 1000.79C1114.21 1006.27 1167.72 1008.32 1214.42 1025.3C1306.83 1058.84 1379.88 1140.85 1442.02 1213.39C1462.99 1237.9 1484.55 1261.98 1506.05 1285.93C1557.15 1342.79 1604.69 1419.5 1681.39 1444.17C1689.24 1446.69 1697.65 1448.91 1706.02 1449C1720.41 1449.13 1738.02 1443.05 1745.89 1429.84C1746.43 1428.97 1746.91 1428.06 1747.34 1427.13C1753.6 1412.95 1747.49 1397.61 1742.52 1384C1739.49 1375.7 1734.1 1367.18 1728.9 1360.08C1671.89 1282.29 1601.24 1211.17 1528.02 1147.25C1450.84 1079.8 1367.63 1016.19 1277.8 968.327C1247.17 952.025 1214.78 936.615 1180.73 927.91C1149.04 919.813 1114.85 918.5 1082.31 916.353C1007.86 911.452 933.038 911.217 858.643 908.511C764.903 905.168 666.478 901.149 577.141 869.301C532.344 853.332 491.029 827.492 459.4 791.693C430.154 758.58 416.683 714.654 408.731 672.17C390.142 573.016 398.015 470.158 392.446 369.387C389.672 319.129 384.123 268.616 370.749 219.975C358.455 175.246 337.63 133.448 316.688 92.4727C290.217 40.6364 260.598 -10.9253 224.449 -55.6743C212.288 -70.5807 198.547 -84.1253 183.467 -96.0708C149.299 -123.361 112.278 -149.662 70.9916 -165.013C56.0694 -170.561 39.5099 -175.09 24.2347 -176.825C2.06713 -179.354 22.0778 -153.769 26.9996 -147.613C41.7061 -129.213 57.9322 -112.078 72.5505 -93.6006" fill="#FE6734"/>
<path d="M202.308 -122.95C255.084 -74.1569 302.124 -20.257 339.309 40.5433C363.727 80.4659 387.359 124.388 399.813 169.015C420.877 244.489 415.503 327.804 413.542 407.061C411.375 494.453 408.237 583.286 422.661 668.297C430.448 714.179 447.589 756.513 482.871 789.133C515.996 819.783 556.094 840.357 599.3 852.658C690.242 878.535 788.146 876.31 881.805 875.261C932.12 874.693 982.445 873.575 1032.76 874.458C1078.05 875.251 1126.33 875.026 1170.54 885.926C1293.64 916.311 1408.1 995.882 1510.81 1066.6C1547.03 1091.55 1583.66 1116.35 1619.56 1141.67C1677.42 1182.48 1732.33 1227.78 1789.86 1269.34C1839.59 1305.27 1893.56 1337.55 1954.11 1349.98C1967.18 1352.67 1981.31 1354.98 1994.14 1353.58C2012.13 1351.62 2038.81 1345.04 2041.79 1322.33C2041.97 1321.03 2042.04 1319.72 2041.98 1318.41C2041 1295.99 2019.5 1275.72 2005.14 1260.9C1996.02 1251.63 1986.39 1242.87 1976.32 1234.64C1872.97 1148.92 1755.39 1076.53 1638.14 1009.2C1518.29 940.492 1394.35 875.614 1266.27 825.645C1194.94 797.818 1126.59 778.851 1049.32 779.576C984.367 780.214 919.607 788.212 855.161 794.279C775.271 801.807 690.075 810.05 611.773 786.84C570.175 774.509 531.421 750.74 502.297 718.453C472.879 685.911 464.475 641.107 464.828 599.567C465.661 500.844 500.463 401.572 518.399 302.868C526.901 256.084 533.226 208.153 529.705 160.527C526.283 114.262 509.622 74.6142 488.902 34.0839C460.729 -21.0804 427.388 -74.8627 387.193 -121.205C373.624 -136.803 358.386 -150.868 341.751 -163.147C297.623 -195.807 246.857 -224.751 190.383 -229.397C172.546 -230.867 151.649 -230.074 135.361 -222.173C89.2526 -199.816 185.784 -137.574 202.308 -122.95Z" fill="#F8727B"/>
<path d="M333.997 -220.529C395.21 -167.748 452.304 -110.192 495.461 -42.6469C521.492 -1.89441 547.857 44.8186 555.125 92.1296C567.601 173.292 541.305 261.237 521.109 342.007C499.325 429.11 466.752 524.35 475.991 612.188C480.542 655.646 497.57 690.771 533.38 719.113C564.948 743.975 602.308 760.431 641.967 766.944C718.472 779.766 798.086 764.679 873.668 752.239C952.949 739.239 1035.07 723.436 1115.69 732.436C1172.84 738.808 1228.99 761.365 1282.17 782.07C1362.33 813.284 1440.66 849.341 1517.83 886.966C1567.1 910.974 1616.49 935.385 1665.14 960.658C1761.86 1010.9 1856.24 1066.08 1951.96 1118.55C2022.65 1157.3 2097.66 1199.48 2176.94 1216.18C2187.95 1218.5 2200.13 1220.18 2211.14 1217.96C2234.4 1213.24 2225.07 1183.18 2218.33 1170.71C2217.31 1168.92 2216.2 1167.19 2214.99 1165.53C2194.66 1136.62 2163.42 1114.55 2134.64 1095.17C2121.22 1086.11 2107.12 1077.33 2093.18 1068.81C1960.77 987.852 1821.35 916.2 1680.86 849.076C1551.03 787.04 1418.64 726.858 1282.64 680.625C1215.27 657.724 1152.03 640.059 1080.33 645.451C1021.7 649.862 963.993 663.008 906.556 674.39C834.68 688.634 757.656 703.977 684.663 687.556C645.331 678.733 607.413 657.999 579.076 629.246C547.592 597.306 539.274 553.897 541.128 511.958C545.503 413.327 589.591 314.401 619.8 217.701C634.768 169.831 648.921 120.697 653.149 70.5132C656.876 26.6726 649.147 -10.9135 630.119 -49.7347C603.791 -103.476 569.619 -153.008 528.721 -196.707C514.35 -211.875 499.017 -226.103 482.818 -239.302C431.079 -281.78 369.934 -319.17 304.013 -335.463C287.388 -339.561 265.074 -343.218 249.086 -335.414C199.476 -311.2 317.558 -234.283 334.007 -220.529" fill="#A090E0"/>
<path d="M1119.44 -439.638C1178.11 -400.1 1195.39 -344.153 1206.61 -277.608C1220.35 -196.323 1240.79 -116.667 1276.65 -42.8502C1300.2 5.71671 1331.36 66.6093 1377.5 98.4638C1430.82 135.264 1509.93 117.168 1566.22 100.956C1649.94 76.8447 1736.76 38.8764 1812.28 -7.08005C1841.92 -25.1172 1858.74 -34.8129 1887.73 -13.7532C1891.85 -10.8092 1897.07 -6.59918 1902.72 -9.55304C1907.07 -11.8199 1910.57 -17.8258 1913.98 -23.4391C1921.38 -35.8499 1929.75 -47.6621 1939 -58.7676C1947.41 -68.7577 1958 -81.3876 1958 -95.3031C1958 -104.439 1953.53 -110.867 1949.76 -115.666C1943.18 -124.037 1928.75 -148.944 1914.98 -143.32C1903.34 -138.561 1892.64 -128.492 1881.61 -121.191C1852.62 -101.947 1821.65 -85.0971 1790.89 -69.6409C1687.56 -17.6982 1538.19 44.9412 1433.59 -38.5616C1360.37 -97.0303 1311.61 -174.292 1294.48 -265.253C1283.01 -326.185 1275.76 -386.94 1243.3 -440.914C1231.14 -461.12 1214.84 -477.567 1194.76 -488.745C1174.27 -500.128 1143.56 -504.957 1121.57 -493.249C1102.46 -483.043 1102.56 -452.209 1119.44 -439.638Z" fill="#0ABBAB"/>
<path d="M1007.74 -419.984C993.035 -419.709 983.326 -404.656 988.328 -391.719C989.301 -389.362 990.769 -387.24 992.633 -385.496C1025.1 -356.017 1052.07 -318.168 1066.08 -276.88C1072.25 -258.681 1077.23 -239.874 1081.9 -221.106C1090.73 -185.659 1099.84 -150.005 1108.03 -114.42C1117.14 -74.8958 1125.69 -34.8812 1135.49 4.43753C1139.81 21.6566 1144.41 39.0129 1149.22 56.0753C1164.29 108.997 1182.83 161.536 1207.77 210.283C1226.15 246.24 1248.03 277.238 1290.44 285.745C1333.24 294.32 1380.45 284.383 1421.41 274.083C1534.77 245.554 1645.78 192.907 1754.37 146.914C1773.68 138.741 1795.99 126.833 1815.97 128.803C1832.64 130.45 1848.33 139.044 1864.29 147.061C1867.65 148.737 1871.33 150.462 1874.9 150.854C1877.51 151.252 1880.16 150.432 1882.08 148.629C1885.42 145.483 1887.14 138.741 1888.5 132.047C1890.68 121.267 1892.75 110.398 1894.77 99.5689C1895.49 95.7762 1896.18 92.0325 1896.92 88.3672C1899.68 74.5292 1901.88 59.0644 1897.57 45.2459C1894.95 37.1387 1890.47 29.7551 1884.49 23.6853C1872.67 11.0233 1854.91 -10.8803 1834.48 -6.53879C1819.14 -3.2753 1804.52 5.05496 1790.28 11.8564C1758.29 27.1252 1725.78 41.5806 1693.58 56.2713C1655.24 73.7746 1616.24 90.7977 1576.89 105.185C1516.87 127.098 1444.39 152.01 1379.11 140.466C1322.04 130.322 1284.79 79.0471 1256.17 33.907C1218.42 -25.6101 1196.48 -93.0263 1181.01 -162.256C1173.84 -194.312 1168.67 -227.31 1161.33 -259.102C1154.97 -286.7 1146.5 -314.17 1133.68 -338.867C1123.86 -357.913 1110.21 -374.729 1093.59 -388.26C1070.88 -406.832 1037.41 -420.542 1007.74 -419.984Z" fill="#FFD300"/>
<path d="M886.104 -372.722C876.013 -373.702 857.902 -372.811 858 -357.837C858.097 -356.048 858.688 -354.322 859.708 -352.849C882.933 -314.052 915.07 -281.86 933.25 -240.153C941.623 -220.936 948.955 -200.954 955.758 -181.081C968.518 -143.48 980.7 -104.83 991.527 -66.8857C1003.66 -24.3749 1012.33 19.9881 1021.44 63.6944C1025.6 83.6171 1029.74 103.589 1034.04 123.472C1047.18 184.142 1061.97 244.988 1082.83 303.129C1097.32 343.543 1112.53 393.178 1149.37 419.676C1187.48 447.115 1238.8 441.02 1281.88 434.268C1428.88 411.19 1566.45 341.935 1711.75 307.696C1740.56 300.914 1773.15 291.124 1801.91 298.386C1825.55 304.364 1848.12 317.76 1870.81 327.256C1875.17 329.078 1879.93 330.656 1884.32 330.891C1887.41 331.058 1890.27 330.313 1892.33 327.785C1895.14 324.355 1895.98 317.436 1896 310.341C1896 298.513 1895.34 286.597 1894.23 274.759C1893.85 270.624 1893.35 266.508 1892.89 262.519C1891.17 247.526 1888.38 231.67 1881.58 218.195C1877.18 209.833 1871.36 202.292 1864.39 195.901C1845.25 178.458 1824.53 159.29 1796.66 160.623C1777.03 161.603 1757.99 168.668 1739.49 174.587C1703.01 186.258 1667.09 198.91 1631.52 212.992C1589.38 229.651 1547.1 247.212 1504.64 262.764C1437.22 287.44 1360.34 315.339 1287.05 312.674C1213.16 309.989 1183.23 249.956 1155.19 191.207C1116.51 110.164 1093.71 22.0852 1074.19 -66.0821C1065.98 -103.125 1057.21 -140.197 1047.81 -176.818C1040.37 -205.835 1032.04 -235.106 1019.87 -261.859C1010.95 -281.495 998.888 -299.546 984.145 -315.297C959.164 -342.001 921.392 -369.42 886.104 -372.722Z" fill="#FE6734"/>
<path d="M757.676 -347.052C744.796 -352.292 726.717 -359.314 713.151 -354.251C712.13 -353.934 711.356 -353.098 711.12 -352.057C709.158 -336.483 731.72 -316.747 740.843 -305.718C758.235 -284.768 776.284 -263.895 790.87 -241.074C803.623 -221.142 815.668 -200.328 826.567 -179.368C847.637 -138.6 865.508 -96.2617 880.018 -52.7334C894.84 -8.40302 906.14 34.4386 911.506 81.0805C913.86 101.571 915.587 122.414 917.146 143.08C921.845 205.149 924.729 268.285 936.471 328.943C945.299 374.497 957.855 424.861 982.918 465.088C1009.58 507.89 1053.55 530.418 1100.97 535.609C1272.88 554.513 1448.04 454.01 1620.17 436.164C1677.88 430.18 1734.33 443.667 1787.05 466.586C1838.31 488.859 1887.31 522.827 1940.2 542.064C1946.41 544.316 1951.83 545.58 1955.45 544.738C1957.98 544.14 1959.42 542.181 1958.89 537.597C1958.27 532.22 1954.79 523.287 1950.71 513.973C1944.07 498.811 1936.98 483.668 1929.77 468.78C1927.3 463.697 1924.86 458.8 1922.49 454.089C1914.39 437.8 1906.19 420.689 1895.36 406.516C1888.64 397.534 1881 389.272 1872.58 381.863C1845.76 358.777 1816.67 335.926 1780.09 332.498C1718.76 326.749 1647.34 347.484 1589.9 364.037C1544.61 377.093 1499.31 392.324 1454.08 406.154C1378.85 429.083 1299.09 453.021 1219.58 454.206C1183.49 454.745 1149.03 446.811 1122.81 420.65C1097.56 395.458 1084.08 359.571 1070.66 327.523C1030.57 231.78 1005.54 130.23 980.152 29.3258C969.362 -13.6921 955.834 -56.044 943.278 -98.6015C933.822 -130.718 924.013 -163.158 910.966 -193.521C901.849 -214.896 890.162 -235.084 876.163 -253.64C845.744 -293.818 803.848 -328.265 757.676 -347.052Z" fill="#EAE9F9"/>
<path d="M603.663 -361.513C586.187 -370.764 566.288 -380.358 546.007 -382.759C544.115 -383.009 542.203 -383.065 540.299 -382.926C521.185 -382.142 559.659 -347.646 563.15 -344.373C585.216 -323.578 608.665 -303.919 629.338 -281.938C647.452 -262.672 665.105 -242.426 681.385 -221.669C712.356 -182.157 739.708 -139.096 760.823 -93.625C781.937 -48.1538 788.969 -4.966 785.997 44.8465C784.723 66.3081 781.928 88.2499 778.652 109.672C768.629 175.027 752.467 240.784 745.004 306.296C739.61 353.531 739.58 401.139 748.485 448.452C758.449 501.459 784.262 542.53 829.816 567.883C919.571 617.744 1036.47 594.675 1135.61 572.577C1226.82 552.262 1325.87 514.532 1420.38 521.128C1535.66 529.173 1651.76 585.973 1753.46 635.923C1813.55 665.43 1872.86 697.338 1932.18 728.786C1978.84 753.54 2026.03 781.244 2074.8 799.609C2083.45 802.872 2093.17 806.851 2102.6 806.998C2107.02 807.067 2109.84 805.126 2108.77 799.874C2107.01 791.201 2101.44 782.636 2097.01 774.963C2086.74 757.264 2074.62 740.095 2062.17 723.621C2057.72 717.741 2053.3 712.087 2048.93 706.658C2033.9 687.97 2017.96 669.585 2000.34 653.543C1986.84 641.311 1972.66 629.859 1957.86 619.243C1889.14 569.813 1814.68 527.184 1735.98 497.657C1693.29 481.625 1648.09 468.463 1601.96 464.935C1560.5 461.77 1517.92 468.62 1477.76 476.901C1432.36 486.27 1386.97 499.019 1341.83 510.73C1265.93 530.438 1187.96 549.763 1108.9 549.312C1071.29 549.096 1033.07 541.717 1001.76 519.912C968.067 496.393 949.512 462.819 935.831 426.05C896.867 321.25 889.012 208.21 878.037 95.8546C872.712 41.3969 863.101 -9.42493 844.958 -60.874C832.209 -96.9471 817.586 -133.001 799.786 -166.575C787.418 -189.774 773.131 -211.901 757.076 -232.724C716.053 -286.054 662.32 -330.477 603.663 -361.513Z" fill="#1DAACC"/>
<path d="M674.233 36.7906C666.62 127.933 626.888 217.86 597.585 305.484C568.86 391.383 533.121 504.076 583.369 582.507C626.604 649.982 725.747 667.024 804.642 662.007C885.98 656.822 965.15 634.38 1044.61 617.817C1081.62 610.104 1118.99 603.234 1156.76 600.745C1199.49 597.942 1238.57 604.665 1279.57 616.602C1430.84 660.703 1575.85 731.402 1715.99 801.699C1823.97 855.885 1930.63 913.52 2037.77 969.852C2078.75 991.412 2119.76 1012.97 2161.58 1032.9C2186.62 1044.8 2213.28 1058.74 2240.74 1063.48C2247.7 1064.69 2253.34 1063.94 2253.84 1059.56C2256.33 1037.75 2228.87 1008.06 2214.52 991.481C2190.29 963.481 2160.17 940.088 2129.94 918.381C1947.14 787.116 1737.18 680.98 1525.13 602.578C1458.61 577.989 1383.54 548.157 1311.4 549.402C1251.29 550.441 1191.86 564.867 1133.56 578.263C1007.01 607.351 780.018 660.928 728.17 501.626C700.584 416.854 713.219 318.685 726.513 228.199C739.001 143.084 764.214 48.6685 747.654 -36.0643C734.469 -103.539 689.645 -169.994 645.234 -221.926C593.847 -281.991 527.332 -329.63 455.775 -363.108C435.782 -372.457 412.894 -382.228 390.399 -382.963C352.139 -384.218 383.385 -352.965 396.285 -341.969C421.527 -320.467 450.242 -303.072 475.749 -282.187C538.83 -230.56 597.31 -171.856 638.111 -101.618C664.109 -56.831 678.569 -15.131 674.233 36.7906Z" fill="#EAE9F9"/>
</g>
</svg>
