<svg width="1600" height="1200" viewBox="0 0 1600 1200" fill="none" xmlns="http://www.w3.org/2000/svg">
<mask id="mask0_1040_308" style="mask-type:alpha" maskUnits="userSpaceOnUse" x="0" y="0" width="1600" height="1200">
<rect width="1600" height="1200" fill="#E6E9F3"/>
</mask>
<g mask="url(#mask0_1040_308)">
<path d="M388.25 1000.56C564.848 1162.29 816.421 1126.79 996.175 937.537C1175.93 748.283 1139.88 452.175 931.423 329.794C722.962 207.414 493.096 211.764 323.498 392.815C153.901 573.865 211.652 838.83 388.25 1000.56Z" fill="#E6EAFF"/>
<path d="M1398.29 150.015C1493.58 202.246 1611.52 206.887 1681.38 120.617C1751.24 34.3464 1737.76 -92.3635 1651.28 -162.398C1564.79 -232.432 1444.52 -199.235 1368.19 -132.999C1291.87 -66.7639 1303.01 97.7842 1398.29 150.015Z" fill="#E6EAFF"/>
<path d="M1750.34 737.053C1868.89 833.056 1868.98 990.604 1791.2 1125.5C1713.43 1260.39 1581.42 1384.56 1489.33 1498.28C1397.24 1612 1227.02 1641.22 1100.88 1539.07C974.73 1436.92 955.071 1254.32 1060.01 1150.62C1164.95 1046.93 1249.62 890.578 1361.88 777.842C1474.15 665.106 1631.78 641.051 1750.34 737.053Z" fill="#E6EAFF"/>
<path d="M162.945 394.697C257.478 471.248 385.844 453.928 459.006 363.58C532.169 273.232 520.363 123.906 427.889 67.5188C335.415 11.1317 199.218 -10.3313 131.828 98.6361C64.4373 207.603 68.4126 318.146 162.945 394.697Z" fill="#FF668C"/>
<path d="M453.02 1085.22C483.003 1109.5 523.726 1103.99 546.941 1075.32C570.157 1046.65 566.424 999.278 537.092 981.396C507.761 963.513 464.557 956.714 443.17 991.29C421.784 1025.87 423.037 1060.94 453.02 1085.22Z" fill="#FF668C"/>
<path d="M49.4311 113.291C69.1213 129.236 95.8648 125.621 111.111 106.794C126.357 87.966 123.905 56.8542 104.643 45.1104C85.3804 33.3666 57.0076 28.9014 42.9628 51.6081C28.918 74.3149 29.7408 97.3464 49.4311 113.291Z" fill="#FF668C"/>
<path d="M587.077 995.935C575.708 1000.19 571.521 1012.37 575.933 1024.84C580.344 1037.32 594.547 1042.5 604.872 1035.9C615.197 1029.31 620.29 1018.82 616.016 1007C611.742 995.17 598.445 991.681 587.077 995.935Z" fill="#FF668C"/>
<path d="M1247.45 205.508C1297.12 245.733 1364.59 236.613 1403.05 189.116C1441.51 141.619 1435.33 63.133 1386.73 33.5066C1338.14 3.88013 1266.56 -7.3844 1231.13 49.8985C1195.7 107.181 1197.78 165.284 1247.45 205.508Z" fill="#FF5C00"/>
<path d="M511.431 397.291C531.121 413.236 557.865 409.621 573.111 390.794C588.357 371.966 585.905 340.854 566.643 329.11C547.38 317.367 519.008 312.901 504.963 335.608C490.918 358.315 491.741 381.346 511.431 397.291Z" fill="#FF5C00"/>
<path d="M599.469 401.587C608.419 408.834 620.575 407.191 627.506 398.633C634.436 390.075 633.321 375.933 624.565 370.595C615.81 365.257 602.913 363.228 596.529 373.549C590.145 383.87 590.519 394.339 599.469 401.587Z" fill="#FF5C00"/>
<path d="M926.312 1259.89C958.855 1286.25 1018.22 1253.28 1054.72 1217.55C1091.23 1181.81 1086.09 1118.04 1040.87 1088.1C995.636 1058.15 943.296 1062.02 911.361 1101.46C879.427 1140.89 893.769 1233.54 926.312 1259.89Z" fill="#FF5C00"/>
<path d="M347.763 826.255C419.783 892.212 522.381 877.736 595.689 800.553C668.998 723.369 654.299 602.609 569.283 552.7C484.268 502.79 390.523 504.565 321.357 578.402C252.19 652.24 275.742 760.299 347.763 826.255Z" fill="#FFCA00"/>
<path d="M1420.89 782.957C1448.16 807.924 1487 802.445 1514.75 773.228C1542.5 744.011 1536.93 698.299 1504.75 679.406C1472.57 660.513 1437.08 661.185 1410.9 689.135C1384.72 717.085 1393.63 757.99 1420.89 782.957Z" fill="#FFCA00"/>
<path d="M575.175 873.06C584.127 881.258 596.88 879.459 605.992 869.866C615.104 860.272 613.276 845.262 602.709 839.058C592.142 832.855 580.49 833.075 571.893 842.253C563.296 851.431 566.223 864.862 575.175 873.06Z" fill="#FFCA00"/>
<path d="M1490.17 842.06C1499.13 850.258 1511.88 848.459 1520.99 838.866C1530.1 829.272 1528.28 814.262 1517.71 808.058C1507.14 801.855 1495.49 802.075 1486.89 811.253C1478.3 820.431 1481.22 833.862 1490.17 842.06Z" fill="#FFCA00"/>
<path d="M609.088 818.53C613.564 822.629 619.94 821.729 624.496 816.933C629.052 812.136 628.139 804.631 622.855 801.529C617.571 798.427 611.745 798.537 607.447 803.126C603.148 807.715 604.612 814.431 609.088 818.53Z" fill="#FFCA00"/>
<path d="M874.895 559.957C902.158 584.924 940.995 579.445 968.745 550.228C996.495 521.011 990.931 475.299 958.749 456.406C926.567 437.513 891.081 438.185 864.899 466.135C838.717 494.085 847.632 534.99 874.895 559.957Z" fill="#DB01FF"/>
<path d="M127.175 496.06C136.127 504.258 148.88 502.459 157.992 492.866C167.104 483.272 165.276 468.262 154.709 462.058C144.142 455.855 132.49 456.075 123.893 465.253C115.296 474.431 118.223 487.862 127.175 496.06Z" fill="#DB01FF"/>
<path d="M1383.17 999.06C1392.13 1007.26 1404.88 1005.46 1413.99 995.866C1423.1 986.272 1421.28 971.262 1410.71 965.058C1400.14 958.855 1388.49 959.075 1379.89 968.253C1371.3 977.431 1374.22 990.862 1383.17 999.06Z" fill="#DB01FF"/>
<path d="M859.438 592.023C853.281 602.484 857.692 614.584 868.97 621.502C880.249 628.42 894.551 623.512 898.422 611.886C902.293 600.26 899.655 588.908 888.89 582.407C878.125 575.906 865.596 581.562 859.438 592.023Z" fill="#DB01FF"/>
<path d="M1541.89 382.957C1569.16 407.924 1608 402.445 1635.75 373.228C1663.5 344.011 1657.93 298.299 1625.75 279.406C1593.57 260.513 1558.08 261.185 1531.9 289.135C1505.72 317.085 1514.63 357.99 1541.89 382.957Z" fill="#00AAFF"/>
<path d="M-63.1317 1353.31C43.5316 1439.69 213.79 1419.71 322.629 1313.12C431.467 1206.54 416.359 1016.54 281.736 927.435C147.112 838.334 -8.79198 850.022 -104.025 967.625C-199.257 1085.23 -169.795 1266.94 -63.1317 1353.31Z" fill="#00AAFF"/>
<path d="M1490.94 370.49C1577.43 440.524 1577.48 555.47 1520.73 653.893C1463.98 752.315 1367.66 842.915 1300.47 925.894C1233.27 1008.87 1109.09 1030.2 1017.06 955.681C925.038 881.16 910.708 747.938 987.276 672.278C1063.84 596.618 1125.63 482.536 1207.54 400.277C1289.45 318.017 1404.46 300.456 1490.94 370.49Z" fill="#00AAFF"/>
<path d="M1056.63 348.681C1093.45 382.405 1145.91 375.004 1183.39 335.54C1220.88 296.075 1213.36 234.329 1169.89 208.81C1126.42 183.29 1078.49 184.198 1043.12 221.951C1007.76 259.705 1019.8 314.957 1056.63 348.681Z" fill="#00FF66"/>
<path d="M-220.854 1017.32C-119.941 1109.74 23.8152 1089.45 126.532 981.309C229.249 873.163 208.652 703.959 89.531 634.027C-29.5896 564.095 -160.942 566.581 -257.855 670.039C-354.768 773.496 -321.767 924.904 -220.854 1017.32Z" fill="#00FF66"/>
<path d="M1510.15 1402.32C1611.06 1494.74 1754.82 1474.45 1857.53 1366.31C1960.25 1258.16 1939.65 1088.96 1820.53 1019.03C1701.41 949.095 1570.06 951.581 1473.15 1055.04C1376.23 1158.5 1409.23 1309.9 1510.15 1402.32Z" fill="#00FF66"/>
<path d="M1437.56 250.478C1453.1 258.988 1472.34 259.727 1483.75 245.636C1495.16 231.545 1492.98 210.866 1478.88 199.448C1464.79 188.031 1445.16 193.467 1432.69 204.29C1420.23 215.112 1422.02 241.967 1437.56 250.478Z" fill="#E6EAFF"/>
<path d="M1164.69 76.1568C1174.11 81.3146 1185.77 81.7627 1192.69 73.2225C1199.6 64.6822 1198.28 52.1494 1189.74 45.2298C1181.19 38.3101 1169.29 41.6051 1161.74 48.1641C1154.19 54.7231 1155.27 70.999 1164.69 76.1568Z" fill="#E6EAFF"/>
<path d="M1074.93 -252.317C1161.41 -182.283 1174.75 -55.399 1104.71 31.086C1034.68 117.571 942.221 211.09 884.451 303.087C826.68 395.085 679.024 413.359 601.048 332.874C523.071 252.389 493.161 145.916 571.261 49.471C649.361 -46.974 714.78 -127.761 791.523 -222.53C868.266 -317.299 988.441 -322.351 1074.93 -252.317Z" fill="#B780FF"/>
</g>
</svg>
